<svg xmlns="http://www.w3.org/2000/svg" width="32" height="32" viewBox="0 0 32 32" fill="none">
    <path d="M3.15283 15.4131C3.15283 16.5137 3.37942 18.9867 4.89436 20.0744C6.40929 21.162 9.84054 20.5599 11.1418 20.4046C12.4431 20.2492 12.2942 21.5246 12.4755 22.4504C12.6568 23.3762 13.4919 23.674 13.8998 23.674H15.9974C15.9974 23.674 17.6871 23.674 18.095 23.674C18.5028 23.674 19.338 23.3826 19.5193 22.4504C19.7005 21.5181 19.5516 20.2427 20.8529 20.4046C22.1542 20.5664 25.579 21.162 27.1004 20.0744C28.6218 18.9867 28.8419 16.5137 28.8419 15.4131C28.8419 14.3125 28.6153 11.8394 27.1004 10.7517C25.5855 9.6641 22.1542 10.2662 20.8529 10.4216C19.5516 10.5769 19.7005 9.30155 19.5193 8.37576C19.338 7.44997 18.5028 7.15216 18.095 7.15216H15.9974C15.9974 7.15216 14.3076 7.15216 13.8998 7.15216C13.4919 7.15216 12.6568 7.44349 12.4755 8.37576C12.2942 9.30802 12.4431 10.5834 11.1418 10.4216C9.84054 10.2597 6.41576 9.6641 4.89436 10.7517C3.37295 11.8394 3.15283 14.3125 3.15283 15.4131Z" fill="#343131" stroke="#343131" stroke-width="0.75" stroke-miterlimit="10"/>
    <path d="M20.374 13.2053H11.6276C10.512 13.2053 9.60767 14.1097 9.60767 15.2252V15.5943C9.60767 16.7098 10.512 17.6142 11.6276 17.6142H20.374C21.4896 17.6142 22.3939 16.7098 22.3939 15.5943V15.2252C22.3939 14.1097 21.4896 13.2053 20.374 13.2053Z" fill="#F7F7F7" stroke="#F7F7F7" stroke-width="0.1" stroke-miterlimit="10"/>
</svg>