<svg
    xmlns="http://www.w3.org/2000/svg"
    width="32"
    height="32"
    fill="none"
    viewBox="0 0 32 32"
  >
    <path
      fill="#343131"
      stroke="#343131"
      strokeMiterlimit="10"
      strokeWidth="1.125"
      d="M3.188 16.385c0 4.645 2.326 5.62 4.719 5.056s5.841-.797 8.093-.797 5.706.233 8.093.797c2.393.565 4.719-.41 4.719-5.056 0-4.645-2.326-5.62-4.719-5.056s-5.841.798-8.093.798-5.706-.233-8.093-.798c-2.387-.564-4.719.412-4.719 5.056Z"
    ></path>
    <path
      fill="#F7F7F7"
      stroke="#F7F7F7"
      strokeMiterlimit="10"
      strokeWidth="0.1"
      d="M21.167 14.078h-10.34a2.307 2.307 0 1 0 0 4.614h10.34a2.307 2.307 0 1 0 0-4.614Z"
    ></path>
</svg>