<svg
    xmlns="http://www.w3.org/2000/svg"
    width="48"
    height="21"
    fill="none"
    viewBox="0 0 48 21"
>
    <path fill="#EF4E25" d="M0 .5h44a4 4 0 0 1 4 4v11a4 4 0 0 1-4 4H0z"></path>
    <path
        stroke="#fff"
        strokeMiterlimit="10"
        strokeWidth="0.833"
        d="M23.47 10.133c0 .688.142 2.234 1.089 2.914s3.091.303 3.904.206c.814-.097.72.7.834 1.278a.944.944 0 0 0 .89.765h2.622a.94.94 0 0 0 .89-.764c.114-.583.02-1.38.834-1.28.813.102 2.954.474 3.904-.206.951-.68 1.089-2.225 1.089-2.913S39.384 7.9 38.437 7.22c-.946-.68-3.09-.304-3.904-.207-.814.098-.72-.7-.834-1.278a.944.944 0 0 0-.89-.765h-2.622a.94.94 0 0 0-.89.765c-.113.583-.02 1.38-.834 1.278-.813-.1-2.954-.473-3.904.207-.951.68-1.089 2.225-1.089 2.913Z"
    ></path>
    <path
        stroke="#fff"
        strokeMiterlimit="10"
        strokeWidth="0.833"
        d="M34.233 8.753h-5.466c-.698 0-1.263.566-1.263 1.263v.23c0 .698.565 1.263 1.263 1.263h5.466c.697 0 1.263-.565 1.263-1.263v-.23c0-.697-.566-1.263-1.263-1.263Z"
    ></path>
</svg>