<svg
    xmlns="http://www.w3.org/2000/svg"
    width="48"
    height="20"
    fill="none"
    viewBox="0 0 48 20"
>
    <path fill="#B52129" d="M0 .5h44a4 4 0 0 1 4 4v11a4 4 0 0 1-4 4H0z"></path>
    <path
        stroke="#fff"
        strokeMiterlimit="10"
        strokeWidth="0.833"
        d="M36.29 9.277h-7.218c-.63 0-1.14.485-1.14 1.083v.003c0 .598.51 1.083 1.14 1.083h7.219c.63 0 1.14-.485 1.14-1.083v-.003c0-.598-.51-1.083-1.14-1.083Z"
    ></path>
    <path
        stroke="#fff"
        strokeMiterlimit="10"
        strokeWidth="0.833"
        d="M40.063 10.363c0 1.324-.75 2.786-1.54 2.72a108 108 0 0 1-1.576-.143c-.193-.019-.396.064-.476.235-.134.278-.294.737-.38.953a.49.49 0 0 1-.464.304h-2.409a.49.49 0 0 1-.467-.317l-.3-.883a.34.34 0 0 0-.413-.21c-1.053.292-4.392 1.188-4.885 1.33-.554.162-1.83.095-2.51-.835-.68-.931-.707-2.663-.707-3.154 0-.49.03-2.216.71-3.15s1.953-.997 2.506-.836c.494.143 3.833 1.039 4.886 1.33.177.047.36-.044.414-.209l.3-.883a.49.49 0 0 1 .466-.317h2.41c.206 0 .39.12.463.304.086.215.246.674.38.953.08.171.28.253.476.234.403-.04 1.053-.098 1.577-.142.79-.067 1.54 1.396 1.54 2.72z"
    ></path>
</svg>