<svg
    xmlns="http://www.w3.org/2000/svg"
    width="48"
    height="20"
    fill="none"
    viewBox="0 0 48 20"
  >
    <path fill="#610D00" d="M0 .5h44a4 4 0 0 1 4 4v11a4 4 0 0 1-4 4H0z"></path>
    <path
      stroke="#fff"
      strokeMiterlimit="10"
      strokeWidth="0.792"
      d="M36.622 8.938H27.31a.957.957 0 1 0 0 1.913h9.31a.957.957 0 1 0 0-1.913Z"
    ></path>
    <path
      stroke="#fff"
      strokeMiterlimit="10"
      strokeWidth="0.792"
      d="M39.68 9.896c0 .826-.258 1.593-.458 1.997a.7.7 0 0 1-.664.381l-1.62-.102a.65.65 0 0 0-.639.39l-.245.562a.65.65 0 0 1-.598.39h-1.514a.65.65 0 0 1-.615-.44l-.094-.267a.65.65 0 0 0-.779-.418 79 79 0 0 1-4.578 1.048c-2.472.477-3.555-1.517-3.555-3.541s1.083-4.018 3.552-3.544c1.77.34 3.653.811 4.578 1.049a.65.65 0 0 0 .78-.42l.093-.266c.09-.263.34-.439.615-.439h1.514c.258 0 .492.152.598.39l.246.562a.65.65 0 0 0 .638.39l1.62-.103a.7.7 0 0 1 .665.38c.202.402.456 1.172.456 1.998z"
    ></path>
</svg>